# Blender 5.1.2
# www.blender.org
mtllib LVL_02.mtl
o LVL_02_walls
v -2.743805 0.008549 2.156364
v -2.743805 1.995000 2.156364
v -2.743805 0.008549 -3.638789
v -2.282253 0.008549 2.156364
v -2.282253 1.995000 2.156364
v -2.282253 0.008549 -3.638789
v -2.282253 1.995000 -3.638789
v -2.743805 -0.005000 -3.638789
v -2.743805 1.995000 -3.638789
v -2.743805 -0.005000 -3.927808
v -2.743805 1.995000 -3.927808
v 3.573884 -0.005000 -3.638789
v 3.573884 1.995000 -3.638789
v 3.573884 -0.005000 -3.927808
v 3.573884 1.995000 -3.927808
v 3.112333 0.008549 2.156364
v 3.112333 1.995000 2.156364
v 3.112333 0.008549 -3.638789
v 3.112333 1.995000 -3.638789
v 3.573884 0.008549 2.156364
v 3.573885 1.995000 2.156364
v 3.573884 0.008549 -3.638789
v -2.743805 -0.005000 2.445383
v -2.743805 1.995000 2.445383
v -2.743805 -0.005000 2.156364
v 3.573884 -0.005000 2.445383
v 3.573884 1.995000 2.445383
v 3.573884 -0.005000 2.156364
vn -1.0000 -0.0000 -0.0000
vn 1.0000 -0.0000 -0.0000
vn -0.0000 -0.0000 -1.0000
vn -0.0000 -0.0000 1.0000
vn -0.0000 -1.0000 -0.0000
vn -0.0000 1.0000 -0.0000
vt 0.375000 0.000000
vt 0.625000 0.000000
vt 0.625000 0.250000
vt 0.375000 0.250000
vt 0.375000 0.500000
vt 0.625000 0.500000
vt 0.625000 0.750000
vt 0.375000 0.750000
vt 0.625000 1.000000
vt 0.375000 1.000000
vt 0.125000 0.500000
vt 0.125000 0.750000
vt 0.875000 0.500000
vt 0.875000 0.750000
s 0
f 1/1/1 2/2/1 9/3/1 3/4/1
f 6/5/2 7/6/2 5/7/2 4/8/2
f 8/1/1 9/2/1 11/3/1 10/4/1
f 10/4/3 11/3/3 15/6/3 14/5/3
f 14/5/2 15/6/2 13/7/2 12/8/2
f 12/8/4 13/7/4 9/9/4 8/10/4
f 10/11/5 14/5/5 12/8/5 8/12/5
f 15/6/6 11/13/6 9/14/6 13/7/6
f 16/1/1 17/2/1 19/3/1 18/4/1
f 22/5/2 13/6/2 21/7/2 20/8/2
f 13/6/6 19/13/6 17/14/6 21/7/6
f 23/1/1 24/2/1 2/3/1 25/4/1
f 25/4/3 2/3/3 21/6/3 28/5/3
f 28/5/2 21/6/2 27/7/2 26/8/2
f 25/11/5 28/5/5 26/8/5 23/12/5
f 21/6/6 2/13/6 24/14/6 27/7/6
f 23/12/4 26/8/4 27/7/4 24/14/4
f 7/6/6 9/3/6 2/2/6 5/7/6
